<mxfile host="app.diagrams.net" modified="2021-06-07T09:16:56.988Z" agent="5.0 (Macintosh; Intel Mac OS X 10_15_7) AppleWebKit/537.36 (KHTML, like Gecko) Chrome/90.0.4430.212 Safari/537.36" etag="ZTefyOndzU7dvckpDGlT" version="14.7.2" type="github">
  <diagram id="t8xIuxY4-CGZHB-n_OXI" name="Page-1">
    <mxGraphModel dx="2253" dy="1938" grid="1" gridSize="10" guides="1" tooltips="1" connect="1" arrows="1" fold="1" page="1" pageScale="1" pageWidth="827" pageHeight="1169" math="0" shadow="0">
      <root>
        <mxCell id="0" />
        <mxCell id="1" parent="0" />
        <mxCell id="2efNMIH4R60jcocclEiI-19" value="" style="html=1;dropTarget=0;strokeColor=#b85450;gradientColor=#ea6b66;fillColor=#FF99CC;" parent="1" vertex="1">
          <mxGeometry x="-10" y="-15" width="610" height="450" as="geometry" />
        </mxCell>
        <mxCell id="2efNMIH4R60jcocclEiI-20" value="" style="shape=module;jettyWidth=8;jettyHeight=4;" parent="2efNMIH4R60jcocclEiI-19" vertex="1">
          <mxGeometry x="1" width="20" height="20" relative="1" as="geometry">
            <mxPoint x="-27" y="7" as="offset" />
          </mxGeometry>
        </mxCell>
        <mxCell id="2efNMIH4R60jcocclEiI-28" value="" style="rounded=0;orthogonalLoop=1;jettySize=auto;html=1;endArrow=none;endFill=0;entryX=0.8;entryY=-0.1;entryDx=0;entryDy=0;entryPerimeter=0;" parent="1" target="2efNMIH4R60jcocclEiI-30" edge="1">
          <mxGeometry relative="1" as="geometry">
            <mxPoint x="700" y="60" as="sourcePoint" />
          </mxGeometry>
        </mxCell>
        <mxCell id="2efNMIH4R60jcocclEiI-29" value="" style="rounded=0;orthogonalLoop=1;jettySize=auto;html=1;endArrow=halfCircle;endFill=0;entryX=0.5;entryY=0.5;entryDx=0;entryDy=0;endSize=6;strokeWidth=1;" parent="1" target="2efNMIH4R60jcocclEiI-30" edge="1">
          <mxGeometry relative="1" as="geometry">
            <mxPoint x="590" y="80" as="sourcePoint" />
          </mxGeometry>
        </mxCell>
        <mxCell id="2efNMIH4R60jcocclEiI-30" value="" style="ellipse;whiteSpace=wrap;html=1;fontFamily=Helvetica;fontSize=12;fontColor=#000000;align=center;strokeColor=#000000;fillColor=#ffffff;points=[];aspect=fixed;resizable=0;" parent="1" vertex="1">
          <mxGeometry x="640" y="65" width="10" height="10" as="geometry" />
        </mxCell>
        <mxCell id="2efNMIH4R60jcocclEiI-31" value="接口1" style="html=1;verticalAlign=bottom;startArrow=oval;startFill=1;endArrow=block;startSize=8;" parent="1" target="pG0UxPANULZYG77CkM7V-148" edge="1">
          <mxGeometry width="60" relative="1" as="geometry">
            <mxPoint x="700" y="60" as="sourcePoint" />
            <mxPoint x="730" y="150" as="targetPoint" />
          </mxGeometry>
        </mxCell>
        <mxCell id="pG0UxPANULZYG77CkM7V-1" value="漫游测试历史" style="html=1;dropTarget=0;strokeColor=#b85450;gradientColor=#ea6b66;fillColor=#FF99CC;" parent="1" vertex="1">
          <mxGeometry x="370" y="50" width="160" height="100" as="geometry" />
        </mxCell>
        <mxCell id="pG0UxPANULZYG77CkM7V-2" value="" style="shape=module;jettyWidth=8;jettyHeight=4;" parent="pG0UxPANULZYG77CkM7V-1" vertex="1">
          <mxGeometry x="1" width="20" height="20" relative="1" as="geometry">
            <mxPoint x="-27" y="7" as="offset" />
          </mxGeometry>
        </mxCell>
        <mxCell id="pG0UxPANULZYG77CkM7V-3" value="测试结果详情" style="html=1;dropTarget=0;strokeColor=#b85450;gradientColor=#ea6b66;fillColor=#FF99CC;" parent="1" vertex="1">
          <mxGeometry x="370" y="250" width="160" height="100" as="geometry" />
        </mxCell>
        <mxCell id="pG0UxPANULZYG77CkM7V-4" value="" style="shape=module;jettyWidth=8;jettyHeight=4;" parent="pG0UxPANULZYG77CkM7V-3" vertex="1">
          <mxGeometry x="1" width="20" height="20" relative="1" as="geometry">
            <mxPoint x="-27" y="7" as="offset" />
          </mxGeometry>
        </mxCell>
        <mxCell id="pG0UxPANULZYG77CkM7V-5" value="测试结果详情" style="html=1;dropTarget=0;strokeColor=#b85450;gradientColor=#ea6b66;fillColor=#FF99CC;" parent="1" vertex="1">
          <mxGeometry x="140" y="50" width="160" height="100" as="geometry" />
        </mxCell>
        <mxCell id="pG0UxPANULZYG77CkM7V-6" value="" style="shape=module;jettyWidth=8;jettyHeight=4;" parent="pG0UxPANULZYG77CkM7V-5" vertex="1">
          <mxGeometry x="1" width="20" height="20" relative="1" as="geometry">
            <mxPoint x="-27" y="7" as="offset" />
          </mxGeometry>
        </mxCell>
        <mxCell id="pG0UxPANULZYG77CkM7V-8" value="依赖1" style="endArrow=open;endSize=12;dashed=1;html=1;exitX=1;exitY=0.5;exitDx=0;exitDy=0;" parent="1" source="pG0UxPANULZYG77CkM7V-5" edge="1">
          <mxGeometry width="160" relative="1" as="geometry">
            <mxPoint x="-240" y="420" as="sourcePoint" />
            <mxPoint x="370" y="100" as="targetPoint" />
          </mxGeometry>
        </mxCell>
        <mxCell id="pG0UxPANULZYG77CkM7V-14" value="依赖2" style="endArrow=open;endSize=12;dashed=1;html=1;exitX=0.5;exitY=0;exitDx=0;exitDy=0;" parent="1" source="pG0UxPANULZYG77CkM7V-3" edge="1">
          <mxGeometry width="160" relative="1" as="geometry">
            <mxPoint x="230" y="420" as="sourcePoint" />
            <mxPoint x="450" y="140" as="targetPoint" />
          </mxGeometry>
        </mxCell>
        <mxCell id="pG0UxPANULZYG77CkM7V-148" value="漫游检测" style="html=1;dropTarget=0;fillColor=#eeeeee;strokeColor=#36393d;" parent="1" vertex="1">
          <mxGeometry x="770" y="20" width="160" height="100" as="geometry" />
        </mxCell>
        <mxCell id="pG0UxPANULZYG77CkM7V-149" value="" style="shape=module;jettyWidth=8;jettyHeight=4;" parent="pG0UxPANULZYG77CkM7V-148" vertex="1">
          <mxGeometry x="1" width="20" height="20" relative="1" as="geometry">
            <mxPoint x="-27" y="7" as="offset" />
          </mxGeometry>
        </mxCell>
        <mxCell id="pG0UxPANULZYG77CkM7V-150" value="ok http框架" style="html=1;dropTarget=0;strokeColor=#36393d;fillColor=#eeeeee;" parent="1" vertex="1">
          <mxGeometry x="770" y="160" width="160" height="100" as="geometry" />
        </mxCell>
        <mxCell id="pG0UxPANULZYG77CkM7V-151" value="" style="shape=module;jettyWidth=8;jettyHeight=4;" parent="pG0UxPANULZYG77CkM7V-150" vertex="1">
          <mxGeometry x="1" width="20" height="20" relative="1" as="geometry">
            <mxPoint x="-27" y="7" as="offset" />
          </mxGeometry>
        </mxCell>
        <mxCell id="pG0UxPANULZYG77CkM7V-152" value="" style="rounded=0;orthogonalLoop=1;jettySize=auto;html=1;endArrow=none;endFill=0;entryX=0.5;entryY=1;entryDx=0;entryDy=0;entryPerimeter=0;" parent="1" target="pG0UxPANULZYG77CkM7V-154" edge="1">
          <mxGeometry relative="1" as="geometry">
            <mxPoint x="730" y="210" as="sourcePoint" />
            <mxPoint x="720" y="260" as="targetPoint" />
          </mxGeometry>
        </mxCell>
        <mxCell id="pG0UxPANULZYG77CkM7V-153" value="" style="rounded=0;orthogonalLoop=1;jettySize=auto;html=1;endArrow=halfCircle;endFill=0;entryX=0.5;entryY=0.5;entryDx=0;entryDy=0;endSize=6;strokeWidth=1;" parent="1" target="pG0UxPANULZYG77CkM7V-154" edge="1">
          <mxGeometry relative="1" as="geometry">
            <mxPoint x="640" y="290" as="sourcePoint" />
          </mxGeometry>
        </mxCell>
        <mxCell id="pG0UxPANULZYG77CkM7V-154" value="" style="ellipse;whiteSpace=wrap;html=1;fontFamily=Helvetica;fontSize=12;fontColor=#000000;align=center;strokeColor=#000000;fillColor=#ffffff;points=[];aspect=fixed;resizable=0;" parent="1" vertex="1">
          <mxGeometry x="690" y="240" width="10" height="10" as="geometry" />
        </mxCell>
        <mxCell id="pG0UxPANULZYG77CkM7V-156" value="接口2" style="html=1;verticalAlign=bottom;startArrow=oval;startFill=1;endArrow=block;startSize=8;entryX=0;entryY=0.5;entryDx=0;entryDy=0;" parent="1" target="pG0UxPANULZYG77CkM7V-150" edge="1">
          <mxGeometry width="60" relative="1" as="geometry">
            <mxPoint x="730" y="210" as="sourcePoint" />
            <mxPoint x="810" y="230" as="targetPoint" />
          </mxGeometry>
        </mxCell>
        <mxCell id="pG0UxPANULZYG77CkM7V-158" value="" style="rounded=0;orthogonalLoop=1;jettySize=auto;html=1;endArrow=halfCircle;endFill=0;endSize=6;strokeWidth=1;exitX=1;exitY=0.5;exitDx=0;exitDy=0;" parent="1" source="pG0UxPANULZYG77CkM7V-1" edge="1">
          <mxGeometry relative="1" as="geometry">
            <mxPoint x="850" y="295" as="sourcePoint" />
            <mxPoint x="590" y="80" as="targetPoint" />
          </mxGeometry>
        </mxCell>
        <mxCell id="pG0UxPANULZYG77CkM7V-160" value="" style="rounded=0;orthogonalLoop=1;jettySize=auto;html=1;endArrow=halfCircle;endFill=0;endSize=6;strokeWidth=1;exitX=0.998;exitY=0.73;exitDx=0;exitDy=0;exitPerimeter=0;" parent="1" source="2efNMIH4R60jcocclEiI-19" edge="1">
          <mxGeometry relative="1" as="geometry">
            <mxPoint x="540" y="110" as="sourcePoint" />
            <mxPoint x="640" y="299" as="targetPoint" />
          </mxGeometry>
        </mxCell>
        <mxCell id="pG0UxPANULZYG77CkM7V-161" value="漫游测试工具" style="text;html=1;strokeColor=none;fillColor=none;align=center;verticalAlign=middle;whiteSpace=wrap;rounded=0;" parent="1" vertex="1">
          <mxGeometry x="210" width="130" height="30" as="geometry" />
        </mxCell>
        <mxCell id="pG0UxPANULZYG77CkM7V-162" value="漫游测试云端服务" style="html=1;dropTarget=0;strokeColor=#b85450;gradientColor=#ea6b66;fillColor=#FF99CC;" parent="1" vertex="1">
          <mxGeometry x="770" y="310" width="160" height="100" as="geometry" />
        </mxCell>
        <mxCell id="pG0UxPANULZYG77CkM7V-163" value="" style="shape=module;jettyWidth=8;jettyHeight=4;" parent="pG0UxPANULZYG77CkM7V-162" vertex="1">
          <mxGeometry x="1" width="20" height="20" relative="1" as="geometry">
            <mxPoint x="-27" y="7" as="offset" />
          </mxGeometry>
        </mxCell>
        <mxCell id="pG0UxPANULZYG77CkM7V-166" value="" style="endArrow=none;html=1;entryX=0.5;entryY=1;entryDx=0;entryDy=0;" parent="1" source="pG0UxPANULZYG77CkM7V-162" target="pG0UxPANULZYG77CkM7V-150" edge="1">
          <mxGeometry width="50" height="50" relative="1" as="geometry">
            <mxPoint x="590" y="320" as="sourcePoint" />
            <mxPoint x="640" y="270" as="targetPoint" />
          </mxGeometry>
        </mxCell>
        <mxCell id="d42akQvLTtOyEbUqVoy7-1" value="" style="shape=crossbar;whiteSpace=wrap;html=1;rounded=1;" vertex="1" parent="1">
          <mxGeometry x="150" y="-590" width="230" height="70" as="geometry" />
        </mxCell>
        <mxCell id="d42akQvLTtOyEbUqVoy7-2" value="" style="shape=crossbar;whiteSpace=wrap;html=1;rounded=1;" vertex="1" parent="1">
          <mxGeometry x="380" y="-590" width="420" height="70" as="geometry" />
        </mxCell>
        <mxCell id="d42akQvLTtOyEbUqVoy7-4" value="" style="endArrow=block;startArrow=block;endFill=1;startFill=1;html=1;entryX=0;entryY=0.229;entryDx=0;entryDy=0;entryPerimeter=0;" edge="1" parent="1" target="d42akQvLTtOyEbUqVoy7-2">
          <mxGeometry width="160" relative="1" as="geometry">
            <mxPoint x="150" y="-574" as="sourcePoint" />
            <mxPoint x="380" y="-570" as="targetPoint" />
          </mxGeometry>
        </mxCell>
        <mxCell id="d42akQvLTtOyEbUqVoy7-5" value="终端漫游切换时间" style="text;html=1;strokeColor=none;fillColor=none;align=center;verticalAlign=middle;whiteSpace=wrap;rounded=0;" vertex="1" parent="1">
          <mxGeometry x="200" y="-610" width="150" height="40" as="geometry" />
        </mxCell>
        <mxCell id="d42akQvLTtOyEbUqVoy7-6" value="开始漫游（BSSID改变）" style="text;html=1;strokeColor=none;fillColor=none;align=center;verticalAlign=middle;whiteSpace=wrap;rounded=0;" vertex="1" parent="1">
          <mxGeometry x="60" y="-510" width="150" height="40" as="geometry" />
        </mxCell>
        <mxCell id="d42akQvLTtOyEbUqVoy7-7" value="漫游完成" style="text;html=1;strokeColor=none;fillColor=none;align=center;verticalAlign=middle;whiteSpace=wrap;rounded=0;" vertex="1" parent="1">
          <mxGeometry x="300" y="-510" width="80" height="40" as="geometry" />
        </mxCell>
        <mxCell id="d42akQvLTtOyEbUqVoy7-8" value="ping开始" style="text;html=1;strokeColor=none;fillColor=none;align=center;verticalAlign=middle;whiteSpace=wrap;rounded=0;" vertex="1" parent="1">
          <mxGeometry x="390" y="-510" width="80" height="40" as="geometry" />
        </mxCell>
        <mxCell id="d42akQvLTtOyEbUqVoy7-9" value="ping通" style="text;html=1;strokeColor=none;fillColor=none;align=center;verticalAlign=middle;whiteSpace=wrap;rounded=0;" vertex="1" parent="1">
          <mxGeometry x="760" y="-510" width="80" height="40" as="geometry" />
        </mxCell>
        <mxCell id="d42akQvLTtOyEbUqVoy7-10" value="" style="endArrow=block;startArrow=block;endFill=1;startFill=1;html=1;" edge="1" parent="1" target="d42akQvLTtOyEbUqVoy7-2">
          <mxGeometry width="160" relative="1" as="geometry">
            <mxPoint x="380" y="-570" as="sourcePoint" />
            <mxPoint x="620" y="-569.97" as="targetPoint" />
            <Array as="points">
              <mxPoint x="800" y="-570" />
            </Array>
          </mxGeometry>
        </mxCell>
        <mxCell id="d42akQvLTtOyEbUqVoy7-11" value="ping成功时间" style="text;html=1;strokeColor=none;fillColor=none;align=center;verticalAlign=middle;whiteSpace=wrap;rounded=0;" vertex="1" parent="1">
          <mxGeometry x="500" y="-604" width="150" height="40" as="geometry" />
        </mxCell>
      </root>
    </mxGraphModel>
  </diagram>
</mxfile>
